<?xml version="1.0" encoding="utf-8"?>
<!-- Generator: Adobe Illustrator 16.0.0, SVG Export Plug-In . SVG Version: 6.00 Build 0)  -->
<!DOCTYPE svg PUBLIC "-//W3C//DTD SVG 1.1//EN" "http://www.w3.org/Graphics/SVG/1.1/DTD/svg11.dtd">
<svg version="1.1" id="Layer_1" xmlns="http://www.w3.org/2000/svg" xmlns:xlink="http://www.w3.org/1999/xlink" viewBox="0 0 612 236.417" enable-background="new 0 0 612 236.417" xml:space="preserve">
<g>
	<g>
		<defs>
			<path id="SVGID_1_" d="M227.905,187.074H215.5c4.125-32.319,4-34.069,10.103-51.271c16.04-45.211,4.658-65.01-22.65-65.01
				c-4.592,0.665-10.012,8.715-38.151,17.729c13.643-6.011,15.23-6.83,15.193-7.677c-0.018-0.4-1.955-2.011-4.65-3.699
				c-8.906-5.579-10.725-6.57-12.677-6.57c-26.833,0-43.286,18.011-29.667,63.304c4.102,13.641,9.25,24,12.625,53.194H131.28
				L111.535,54.845h26.315v11.92c6.1-9.052,14.417-13.583,24.957-13.583c4.986,0,9.471,1.157,13.444,3.464
				c3.974,2.314,7.351,5.684,10.125,10.119c3.506-4.435,7.379-7.805,11.626-10.119c4.241-2.308,9.042-3.464,14.391-3.464
				c9.039,0,16.466,3.196,22.277,9.585c5.814,6.388,8.723,14.12,8.723,23.194L227.905,187.074L227.905,187.074z M171.149,158.59
				c3.532-2.968,10.565-7.553,26.664-10.023c-16.29,3.613-15.764,5.3-15.394,5.751c0.29,0.354,6.826,0.666,10.84,6.354
				c4.421,5.969,4.725,16.108,4.131,26.401h-32.767C164.035,175.454,164.699,164.009,171.149,158.59L171.149,158.59z"/>
		</defs>
		<use xlink:href="#SVGID_1_"  overflow="visible" fill-rule="evenodd" clip-rule="evenodd" fill="#231F20"/>
		<clipPath id="SVGID_2_">
			<use xlink:href="#SVGID_1_"  overflow="visible"/>
		</clipPath>
	</g>
	<g>
		<defs>
			<path id="SVGID_3_" d="M70.54,173.58c-6.593,8.906-16.659,13.359-30.197,13.359c-13.542,0-23.606-4.453-30.198-13.359
				c-6.593-8.904-9.888-22.263-9.888-40.077V53.349c0-17.813,3.295-31.171,9.888-40.078C16.736,4.367,26.801-0.088,40.343-0.088
				c13.539,0,23.604,4.455,30.197,13.359c6.591,8.906,9.888,22.265,9.888,40.078v80.154C80.428,151.317,77.131,164.675,70.54,173.58
				L70.54,173.58z M53.704,53.349c0-8.905-1.069-15.584-3.207-20.039c-2.138-4.452-5.524-6.68-10.154-6.68
				c-4.633,0-8.018,2.228-10.155,6.68c-2.138,4.455-3.207,11.134-3.207,20.039v80.154c0,8.907,1.069,15.586,3.207,20.039
				c2.137,4.454,5.522,6.68,10.155,6.68c4.63,0,8.017-2.226,10.154-6.68c2.137-4.453,3.207-11.132,3.207-20.039V53.349
				L53.704,53.349z M83.741,186.939V-0.088h26.723v187.027H83.741L83.741,186.939z M277.334,186.939
				c-13.541,0-23.607-3.294-30.198-9.886c-6.593-6.59-9.887-16.652-9.887-30.19s3.294-23.601,9.887-30.194
				c6.591-6.588,16.658-9.885,30.198-9.885h13.362c0-8.904-1.069-15.584-3.207-20.039c-2.138-4.452-5.524-6.678-10.155-6.678
				h-26.723V53.349h26.723c13.539,0,23.604,4.454,30.198,13.359c6.59,8.906,9.887,22.266,9.887,40.076v80.155H277.334
				L277.334,186.939z M290.696,133.502h-13.362c-4.632,0-8.017,1.068-10.155,3.205c-2.139,2.139-3.207,5.524-3.207,10.155
				c0,4.63,1.068,8.015,3.207,10.151c2.138,2.138,5.523,3.207,10.155,3.207h13.362V133.502L290.696,133.502z M360.817,186.939
				c-13.542,0-23.606-5.521-30.197-16.565c-6.593-11.042-9.888-27.788-9.888-50.229c0-22.444,3.295-39.187,9.888-50.231
				c6.591-11.042,16.655-16.564,30.197-16.564h13.362V-0.088h26.722v187.027H360.817L360.817,186.939z M374.18,80.066h-13.362
				c-4.633,0-8.018,3.296-10.154,9.885c-2.139,6.593-3.207,16.656-3.207,30.192c0,13.537,1.068,23.601,3.207,30.191
				c2.137,6.592,5.521,9.886,10.154,9.886h13.362V80.066L374.18,80.066z M430.939,133.502c0,4.632,1.068,10.242,3.207,16.833
				c2.137,6.592,5.521,9.886,10.153,9.886h26.723v26.718H444.3c-13.541,0-23.605-5.521-30.196-16.565
				c-6.595-11.042-9.889-27.788-9.889-50.229c0-22.444,3.294-39.187,9.889-50.231c6.591-11.042,16.655-16.564,30.196-16.564
				c13.363,0,23.385,5.522,30.063,16.564c6.682,11.044,10.022,27.787,10.022,50.231v13.358H430.939L430.939,133.502z
				 M454.456,89.952c-2.139-6.589-5.524-9.885-10.156-9.885s-8.017,3.296-10.153,9.885c-2.139,6.593-3.207,12.203-3.207,16.832
				h26.724C457.663,102.155,456.593,96.544,454.456,89.952L454.456,89.952z M541.145,186.939v-66.795
				c0-13.537-1.068-23.6-3.207-30.192c-2.137-6.589-5.524-9.885-10.154-9.885h-13.362v106.873h-26.723V53.349h40.085
				c13.539,0,23.604,5.522,30.197,16.564c6.592,11.044,9.888,27.787,9.888,50.231v66.795H541.145L541.145,186.939z"/>
		</defs>
		<use xlink:href="#SVGID_3_"  overflow="visible" fill="#231F20"/>
		<clipPath id="SVGID_4_">
			<use xlink:href="#SVGID_3_"  overflow="visible"/>
		</clipPath>
	</g>
	<g>
		<defs>
			<polygon id="SVGID_5_" points="608.752,80.066 600.344,80.066 600.344,186.939 573.62,186.939 573.62,80.066 564.093,80.066 
				564.093,53.348 573.62,53.348 573.62,13.27 600.344,13.27 600.344,53.348 608.752,53.348 608.752,80.066 			"/>
		</defs>
		<use xlink:href="#SVGID_5_"  overflow="visible" fill-rule="evenodd" clip-rule="evenodd" fill="#231F20"/>
		<clipPath id="SVGID_6_">
			<use xlink:href="#SVGID_5_"  overflow="visible"/>
		</clipPath>
	</g>
</g>
<g>
	<rect x="-91.667" y="193.458" fill="none" width="789.333" height="44.96"/>
	<path fill="#333333" d="M25.132,230.502c-1.319,1.698-2.98,2.977-4.986,3.835c-2.005,0.857-4.2,1.287-6.585,1.287
		c-4.047,0-7.227-1.354-9.539-4.065c-2.313-2.709-3.514-6.467-3.604-11.273v-9.593c0-5.04,1.098-8.902,3.293-11.585
		c2.195-2.683,5.325-4.024,9.39-4.024c3.632,0,6.477,1.003,8.537,3.008c2.06,2.006,3.215,4.896,3.469,8.672h-3.089
		c-0.325-3.035-1.215-5.252-2.669-6.652c-1.455-1.4-3.527-2.101-6.219-2.101c-3.216,0-5.623,1.07-7.222,3.211
		c-1.599,2.142-2.398,5.28-2.398,9.418v9.105c0,4.119,0.88,7.316,2.642,9.593c1.761,2.276,4.231,3.415,7.412,3.415
		c3.451,0,6.269-1.094,8.455-3.279v-10.271h-8.645v-2.899h11.761V230.502z"/>
	<path fill="#333333" d="M50.074,224.053H35.278l-3.36,11.029h-3.225l12.574-39.457h2.872l12.574,39.457h-3.225L50.074,224.053z
		 M36.172,221.153H49.18l-6.504-21.164L36.172,221.153z"/>
	<path fill="#333333" d="M60.68,235.083v-39.457h10c3.559,0,6.255,0.871,8.089,2.614c1.833,1.742,2.751,4.311,2.751,7.704
		c0,2.022-0.47,3.783-1.409,5.281c-0.94,1.499-2.241,2.582-3.902,3.25c1.915,0.488,3.464,1.604,4.647,3.35
		c1.183,1.744,1.775,3.791,1.775,6.141c0,3.435-0.939,6.146-2.818,8.135c-1.879,1.988-4.544,2.982-7.995,2.982H60.68z
		 M63.77,213.294h7.181c2.349,0,4.174-0.623,5.475-1.87c1.301-1.246,1.951-3.098,1.951-5.555c0-2.512-0.637-4.358-1.911-5.542
		c-1.274-1.184-3.203-1.775-5.786-1.775H63.77V213.294z M63.77,216.113v16.097h8.184c2.348,0,4.2-0.724,5.556-2.171
		c1.354-1.447,2.032-3.456,2.032-6.026c0-2.389-0.628-4.289-1.883-5.7c-1.256-1.412-3.004-2.146-5.244-2.199H63.77z"/>
	<path fill="#333333" d="M92.18,235.083h-3.089v-39.457h3.089V235.083z"/>
	<path fill="#333333" d="M125.008,235.083h-3.089l-18.618-33.604v33.604h-3.116v-39.457h3.116l18.645,33.658v-33.658h3.063V235.083z
		"/>
	<path fill="#333333" d="M150.897,216.194h-15.311v16.016h17.615v2.873h-20.704v-39.457h20.568v2.927h-17.479v14.77h15.311V216.194z
		"/>
	<path fill="#333333" d="M181.314,198.552h-11.22v36.53h-3.116v-36.53h-11.192v-2.927h25.528V198.552z"/>
	<path fill="#333333" d="M213.798,225.381c0-2.204-0.628-3.938-1.883-5.203c-1.256-1.265-3.6-2.476-7.033-3.632
		s-5.953-2.448-7.561-3.875c-2.114-1.86-3.171-4.318-3.171-7.371c0-3.018,1.039-5.475,3.117-7.371
		c2.077-1.897,4.76-2.846,8.048-2.846c3.36,0,6.106,1.103,8.238,3.306c2.132,2.205,3.198,5.041,3.198,8.51h-3.117
		c0-2.656-0.745-4.801-2.236-6.437c-1.49-1.635-3.519-2.452-6.084-2.452c-2.493,0-4.458,0.673-5.894,2.019
		c-1.436,1.347-2.154,3.086-2.154,5.217c0,1.988,0.677,3.614,2.033,4.878c1.354,1.265,3.513,2.39,6.477,3.374
		c2.963,0.985,5.203,2.006,6.721,3.063s2.638,2.299,3.36,3.726c0.722,1.428,1.084,3.108,1.084,5.041c0,3.09-1.043,5.578-3.13,7.466
		c-2.087,1.889-4.847,2.832-8.279,2.832c-2.313,0-4.422-0.475-6.328-1.423c-1.906-0.948-3.396-2.313-4.471-4.092
		c-1.075-1.779-1.612-3.88-1.612-6.301h3.089c0,2.782,0.84,4.969,2.521,6.559s3.947,2.385,6.802,2.385
		c2.493,0,4.494-0.669,6.003-2.006C213.044,229.41,213.798,227.622,213.798,225.381z"/>
	<path fill="#333333" d="M244.648,198.552h-11.22v36.53h-3.116v-36.53H219.12v-2.927h25.528V198.552z"/>
	<path fill="#333333" d="M272.813,219.635c0,5.096-1.116,9.034-3.347,11.816c-2.231,2.782-5.361,4.173-9.39,4.173
		c-3.993,0-7.123-1.391-9.39-4.173c-2.268-2.782-3.411-6.694-3.428-11.734v-8.591c0-5.076,1.129-9.02,3.388-11.829
		c2.258-2.809,5.383-4.214,9.376-4.214c4.047,0,7.19,1.409,9.431,4.228s3.36,6.784,3.36,11.896V219.635z M269.697,211.073
		c0-4.318-0.831-7.562-2.493-9.729c-1.663-2.168-4.056-3.252-7.182-3.252c-3.017,0-5.375,1.062-7.073,3.185
		c-1.698,2.123-2.565,5.298-2.602,9.525v8.834c0,4.336,0.858,7.593,2.575,9.77c1.716,2.178,4.101,3.266,7.154,3.266
		c3.144,0,5.532-1.084,7.167-3.252c1.635-2.168,2.453-5.429,2.453-9.783V211.073z"/>
	<path fill="#333333" d="M283.284,195.625l11.951,34.715l12.005-34.715h4.092v39.457h-3.089v-17.1l0.271-17.209l-12.086,34.309
		h-2.385l-12.032-34.146l0.271,16.938v17.208h-3.089v-39.457H283.284z"/>
	<path fill="#333333" d="M337.224,224.053h-14.797l-3.36,11.029h-3.225l12.574-39.457h2.872l12.574,39.457h-3.225L337.224,224.053z
		 M323.321,221.153h13.008l-6.504-21.164L323.321,221.153z"/>
	<path fill="#333333" d="M366.906,198.552h-11.22v36.53h-3.116v-36.53h-11.192v-2.927h25.528V198.552z"/>
	<path fill="#333333" d="M395.072,219.635c0,5.096-1.115,9.034-3.347,11.816s-5.361,4.173-9.39,4.173
		c-3.993,0-7.123-1.391-9.391-4.173s-3.41-6.694-3.428-11.734v-8.591c0-5.076,1.129-9.02,3.388-11.829
		c2.258-2.809,5.383-4.214,9.376-4.214c4.047,0,7.19,1.409,9.431,4.228s3.36,6.784,3.36,11.896V219.635z M391.956,211.073
		c0-4.318-0.831-7.562-2.493-9.729s-4.056-3.252-7.182-3.252c-3.018,0-5.375,1.062-7.073,3.185s-2.565,5.298-2.602,9.525v8.834
		c0,4.336,0.858,7.593,2.575,9.77c1.716,2.178,4.101,3.266,7.154,3.266c3.144,0,5.532-1.084,7.168-3.252
		c1.635-2.168,2.452-5.429,2.452-9.783V211.073z"/>
	<path fill="#333333" d="M404.567,232.209h16.26v2.873h-19.376v-39.457h3.116V232.209z"/>
	<path fill="#333333" d="M448.017,219.635c0,5.096-1.115,9.034-3.347,11.816s-5.361,4.173-9.39,4.173
		c-3.993,0-7.123-1.391-9.391-4.173s-3.41-6.694-3.428-11.734v-8.591c0-5.076,1.129-9.02,3.388-11.829
		c2.258-2.809,5.383-4.214,9.376-4.214c4.047,0,7.19,1.409,9.431,4.228s3.36,6.784,3.36,11.896V219.635z M444.9,211.073
		c0-4.318-0.831-7.562-2.493-9.729s-4.056-3.252-7.182-3.252c-3.018,0-5.375,1.062-7.073,3.185s-2.565,5.298-2.602,9.525v8.834
		c0,4.336,0.858,7.593,2.575,9.77c1.716,2.178,4.101,3.266,7.154,3.266c3.144,0,5.532-1.084,7.168-3.252
		c1.635-2.168,2.452-5.429,2.452-9.783V211.073z"/>
	<path fill="#333333" d="M478.433,230.502c-1.318,1.698-2.98,2.977-4.986,3.835c-2.005,0.857-4.2,1.287-6.585,1.287
		c-4.047,0-7.227-1.354-9.539-4.065c-2.313-2.709-3.514-6.467-3.604-11.273v-9.593c0-5.04,1.098-8.902,3.293-11.585
		s5.325-4.024,9.39-4.024c3.632,0,6.477,1.003,8.537,3.008c2.059,2.006,3.215,4.896,3.469,8.672h-3.09
		c-0.325-3.035-1.215-5.252-2.669-6.652c-1.455-1.4-3.528-2.101-6.22-2.101c-3.216,0-5.623,1.07-7.222,3.211
		c-1.6,2.142-2.398,5.28-2.398,9.418v9.105c0,4.119,0.881,7.316,2.642,9.593c1.762,2.276,4.232,3.415,7.412,3.415
		c3.45,0,6.269-1.094,8.455-3.279v-10.271h-8.645v-2.899h11.761V230.502z"/>
	<path fill="#333333" d="M489.093,235.083h-3.089v-39.457h3.089V235.083z"/>
	<path fill="#333333" d="M520.756,222.78c-0.289,4.426-1.481,7.674-3.577,9.742c-2.097,2.068-4.996,3.103-8.699,3.103
		c-3.813,0-6.82-1.44-9.024-4.322s-3.315-6.798-3.333-11.748v-8.563c0-4.968,1.125-8.861,3.374-11.68s5.325-4.228,9.228-4.228
		c3.686,0,6.54,1.057,8.563,3.171c2.022,2.113,3.18,5.356,3.469,9.729h-3.144c-0.289-3.577-1.134-6.134-2.534-7.669
		s-3.519-2.304-6.354-2.304c-2.981,0-5.303,1.111-6.965,3.333c-1.662,2.223-2.493,5.447-2.493,9.675v8.455
		c0,4.191,0.804,7.452,2.412,9.783c1.607,2.33,3.875,3.496,6.802,3.496c3.071,0,5.293-0.769,6.666-2.304s2.195-4.093,2.467-7.669
		H520.756z"/>
	<path fill="#333333" d="M528.109,232.209h20.298v2.873h-23.902v-2.574l19.512-33.983h-18.97v-2.899h22.628v2.466L528.109,232.209z"
		/>
	<path fill="#333333" d="M578.498,235.083h-3.09l-18.617-33.604v33.604h-3.116v-39.457h3.116l18.645,33.658v-33.658h3.063V235.083z"
		/>
	<path fill="#333333" d="M595.039,217.088l9.838-21.463h3.55l-11.87,24.606v14.851h-3.089v-14.851l-11.843-24.606h3.632
		L595.039,217.088z"/>
</g>
</svg>
